# xmcd
#
# Track frame offsets: 
#        150
#        17157
#        27932
#        42790
#        62577
#        79026
#        89685
#        105266
#        123231
#        141925
#        160709
#        179813
#        196240
#
# Disc length: 2867 seconds
#
# Revision: 0
# Processed by: cddbd v1.5.2PL0 Copyright (c) Steve Scherf et al.
# Submitted via: ExactAudioCopyFreeDBPlugin 1.0
#
DISCID=a50b310d
DTITLE=The Well - Charlie Musselwhite
DYEAR=2010
DGENRE=Blues
TTITLE0=Rambler's Blues
TTITLE1=Dig The Pain
TTITLE2=The Well
TTITLE3=Where Hwy 61 Runs
TTITLE4=Sad and Beautiful World
TTITLE5=Sonny Payne Special
TTITLE6=Good Times
TTITLE7=Just You, Just Blues
TTITLE8=Cadillac Women
TTITLE9=Hoodoo Queen
TTITLE10=Clarksdale Getaway
TTITLE11=Cool County Blues
TTITLE12=Sorcerer's Dream
EXTD=
EXTT0=
EXTT1=
EXTT2=
EXTT3=
EXTT4=
EXTT5=
EXTT6=
EXTT7=
EXTT8=
EXTT9=
EXTT10=
EXTT11=
EXTT12=
PLAYORDER=
